<?xml version="1.0" encoding="UTF-8"?>
<svg version="1.1" xmlns="http://www.w3.org/2000/svg" width="50" height="50">
<path d="M0 0 C15.18 0 30.36 0 46 0 C46.495 8.91 46.495 8.91 47 18 C47.495 18.99 47.495 18.99 48 20 C48.08372659 21.52148326 48.10730027 23.04655778 48.09765625 24.5703125 C48.09443359 25.46621094 48.09121094 26.36210938 48.08789062 27.28515625 C48.07532227 28.69087891 48.07532227 28.69087891 48.0625 30.125 C48.05798828 31.06988281 48.05347656 32.01476563 48.04882812 32.98828125 C48.03702357 35.32558387 48.02055759 37.66276061 48 40 C45.69 40 43.38 40 41 40 C40.34 38.35 39.68 36.7 39 35 C28.44 35 17.88 35 7 35 C6.01 37.475 6.01 37.475 5 40 C2.69 40 0.38 40 -2 40 C-2.02895225 36.70835171 -2.0467823 33.41673601 -2.0625 30.125 C-2.07506836 28.71927734 -2.07506836 28.71927734 -2.08789062 27.28515625 C-2.09111328 26.38925781 -2.09433594 25.49335937 -2.09765625 24.5703125 C-2.10289307 23.74289551 -2.10812988 22.91547852 -2.11352539 22.06298828 C-2 20 -2 20 -1 18 C-0.505 9.09 -0.505 9.09 0 0 Z M2 3 C1.92755947 5.01964199 1.91622812 7.04167124 1.9375 9.0625 C1.94652344 10.16722656 1.95554688 11.27195312 1.96484375 12.41015625 C1.97644531 13.26480469 1.98804688 14.11945312 2 15 C2.99 14.67 3.98 14.34 5 14 C5.33 12.02 5.66 10.04 6 8 C17.22 8 28.44 8 40 8 C40.495 10.97 40.495 10.97 41 14 C41.99 14.33 42.98 14.66 44 15 C44.02686553 13.02090602 44.04633375 11.04171029 44.0625 9.0625 C44.07410156 7.96035156 44.08570313 6.85820312 44.09765625 5.72265625 C44.31262571 3.08552366 44.31262571 3.08552366 43 2 C40.0546443 1.89889647 37.1332244 1.86030721 34.1875 1.8671875 C33.30344482 1.86623077 32.41938965 1.86527405 31.50854492 1.86428833 C29.63557871 1.86360649 27.76261014 1.86546107 25.88964844 1.86962891 C23.01231612 1.87497711 20.13513992 1.86968407 17.2578125 1.86328125 C15.44270799 1.86394203 13.62760357 1.86522319 11.8125 1.8671875 C10.51252075 1.86415115 10.51252075 1.86415115 9.1862793 1.86105347 C5.27996781 1.48739586 5.27996781 1.48739586 2 3 Z M7 11 C7 11.66 7 12.32 7 13 C11.95 12.67 16.9 12.34 22 12 C21.67 11.34 21.34 10.68 21 10 C15.58663118 8.70079148 12.10852714 9.22765385 7 11 Z M24 11 C24 11.33 24 11.66 24 12 C28.95 12.33 33.9 12.66 39 13 C38.67 12.01 38.34 11.02 38 10 C32.51053913 8.87970186 29.16569441 9.20782031 24 11 Z M2 19 C0.5527864 21.52174919 0.5527864 21.52174919 1 27 C15.52 27 30.04 27 45 27 C45.6 21.33125 45.6 21.33125 43.3125 18.75 C32.72477794 10.7376698 12.850435 12.24406878 2 19 Z M0 29 C0 31.97 0 34.94 0 38 C0.99 38 1.98 38 3 38 C3.33 36.35 3.66 34.7 4 33 C16.54 33 29.08 33 42 33 C42.495 35.475 42.495 35.475 43 38 C43.99 38 44.98 38 46 38 C46 35.03 46 32.06 46 29 C30.82 29 15.64 29 0 29 Z " fill="#000000" transform="translate(2,10)"/>
</svg>
